<svg xmlns="http://www.w3.org/2000/svg" version="1.1" xmlns:xlink="http://www.w3.org/1999/xlink" xmlns:svgjs="http://svgjs.dev/svgjs" width="1000" height="1000" viewBox="0 0 1000 1000"><rect width="1000" height="1000" fill="#ffffff"></rect><g transform="matrix(0.7,0,0,0.7,150.00000546874986,106.25)"><svg viewBox="0 0 320 360" data-background-color="#000000" preserveAspectRatio="xMidYMid meet" height="1125" width="1000" xmlns="http://www.w3.org/2000/svg" xmlns:xlink="http://www.w3.org/1999/xlink"><g id="tight-bounds" transform="matrix(1,0,0,1,0.0000025000000505315256,0)"><svg viewBox="0 0 320 360" height="360" width="320"><g><svg></svg></g><g><svg viewBox="0 0 320 360" height="360" width="320"><g><path transform="translate(-19.44751,3.1739) scale(3.53591,3.53591)" d="M67.6 10.7c0.2 0 1.8 0.8 2.7 1.1-0.3 0.1-1-0.2-1.8-0.5 0.2 0 0.6 0.1 1 0.3-0.2-0.2-1.7-0.7-1.9-0.9M52.7 7.6c0.3-0.1 3.8 0.4 5.4 0.5 0.1-0.1-0.2-0.1-0.6-0.2 0.5-0.1 1.5 0.2 2.2 0.3-2.1 0.1-4.4-0.5-6.4-0.3-0.7 0-0.2-0.2-0.6-0.3M49.8 7.6c1.8 0 3.2 0 0.6 0.2-0.3-0.1-0.7-0.1-0.6-0.2M78.1 15.9c0.2 0 1 0.9 1.4 1.2-0.1 0.1-0.9-0.7-1.3-1 0.1 0.1 0 0-0.1-0.2M76.1 14.6c-0.8-0.7-1.1-0.7-1.2-1.1 0.7 0.4 1.2 0.8 1.2 1.1M63.2 8.3c0.1-0.1 0.3 0.1 0.8 0.2-0.6-0.1-0.5 0-0.3 0.2-0.7-0.1-0.9-0.2-0.7-0.4 0.4 0.2 0.5 0.1 0.2 0M34.8 9.5c0-0.1 0.4-0.3 0.7-0.4-0.3 0.2-0.2 0.3 0.3 0.1 0 0.1-0.6 0.3-1 0.5 0.2-0.1 0.4-0.4 0-0.2M65.2 7.3c-0.3 0.1-1.4-0.5-2.5-0.7-0.6-0.2 2.4 0.5 2.5 0.7M6.2 56.7c0.6 2.5 0.2 2.4 0 0M6.3 41.7c0.1-0.4 0.2-1.5 0.3-1.4-0.3 2.4-0.8 3.5-0.9 5.3 0.3-1.6-0.1 0.9-0.2 1.5 0.1 0.8 0.1-0.5 0.3-0.3 0.2 0.3-0.4 4.5-0.2 2.2-0.2 2.1 0 4.4 0.4 5-0.5 3.2 2 10.4 2.5 11.9 0.1 0.1 0-0.5 0.2-0.1 0.2 1.3 1.1 2.2 1.4 3.6 0.3 0.4 1.5 2.6 1.7 3.1 0.4 0.8 0.6 0.7 1 1.5 1.2 2.3 3.1 4.5 4.9 6.6 5.8 6.8 14.7 12.4 24.6 14.4 9.9 2.1 20.3 0.6 28.4-3.3 0.5-0.3 0.4-0.4 1-0.6 2.8-0.9 6.2-3.8 8.1-4.9 0.9-1 3.3-2.7 3.6-3.7 1.7-1.4 3.4-3.7 4.3-5.2 0.5-0.8 0.9-0.8 1.1-1.3-0.1 0 1.6-2.1 2.1-3.3-0.2 0-0.5 0.6-0.5 0 3.6-6.9 5.6-16.2 4.5-22.6 0.2 7.9-1.8 16.7-5.6 22.3-1.7 3.6-5.2 7.5-8.4 10.3-0.5 0.5-1 1.1-1.6 1.5-1.9 1.6-4 2.9-6.2 4.1-5.2 2.9-11 5.4-17.8 5.5 11.7-1 22.2-6.9 28-14.1-4.4 4.3-6.3 6-11.2 8.5-0.4 0.7-3.7 2.1-5.9 2.7 1.3-0.6 4-1.6 4.9-2.4-7.3 3.5-15.4 5.5-23 4.4 2.9 0 7 0.1 10.9-0.6 0.6-0.2 0.9-0.4 1.6-0.5 7.6-1.7 14.9-5.4 20.1-10.6-3 2.7-7.5 5.9-10.4 6.9 2.7-1.5 7.6-4.4 9.2-6.6-3.2 3.2-9.2 6.4-13 7.8-0.6 0.1 0.4-0.4-0.6 0-1.2 0.3-0.7 0.3-1 0.5-4.6 1.3-9.9 2.4-14.3 2-0.8-0.1-1.1-0.3-1.8-0.3-0.8-0.1-1.5-0.1-2.4-0.1-3.5-0.4-7.3-1.8-10.1-3-1.5-0.7-3-1.2-4.5-2.1-1.2-0.7-2.2-1.5-3.2-2.3-3.8-2.8-7-5.6-10-9.6-5.4-7.5-8.2-16.9-7.8-26.2 0.4-9.3 4.1-18.4 10-25.1-0.3 0.3 0.4-0.7 1-1.3 0 0.2-0.1 0.5 0.6-0.2 0.6-0.7-0.2-0.2 0.1-0.6 6.2-6.8 17-12.3 28.1-12.5 0.4-0.3 1.1-0.7 1.9-0.5 0 0.1-0.5 0.1-0.5 0.1 1.1-0.1 2.1-0.1 2.6 0.1 0.1-0.1-0.4-0.2 0-0.2 0.7 0.2 0.9 0 1.3 0.2-0.3 0-0.6 0-0.8 0.1 2.5 0 4.1 0.6 6.6 0.8-1.3-0.3-1.6-0.3-2.6-0.6 1.1 0.2 1.6 0.4 2.1 0.3-0.2 0-0.1-0.3 0.1-0.2 2 0.5 2.2 0.7 4.3 1.4 0.2-0.2-0.9-0.3-1.2-0.6 2 0.7 3.8 1.2 5 2-0.4-0.3-1.6-0.7-2.5-1.1-0.1 0.1 0.3 0.2 0.4 0.4-1-0.5-2.4-1-3.8-1.2 1.2 0.3 2 0.7 2.5 0.9-1.1-0.2-2.5-0.9-4.1-1.2 2.6 0.8 7.5 2.6 10.5 4.2-1.1-0.7-2.4-1.2-3.1-1.6 0.6 0.1 1.3 0.5 1.3 0.3 0.7 0.3 1.6 1 2.1 1.1-0.9-0.6-2.7-1.5-3.3-1.8 7.5 3.4 14.2 9.1 18.5 16.4 0.4 0.7 1 2.3 1.5 2.5-0.1-0.5-0.5-0.8-0.9-1.6 0.2 0 0.2-0.3 0-0.6-0.4-0.5 0 0.4-0.4-0.1-1.8-3.3-4-6.2-7.4-9.4 1.9 1.8 0.5 0.5 0.1-0.1 2.6 2.3 5.6 6.2 6.9 8.2-0.2-0.3-0.3-0.5-0.2-0.5 2.4 4.1 3.9 7.8 5.4 13.1 0.1 0.1 0-0.4 0.2-0.1 1 4.2 1.3 7.7 1.2 10.9 0.8-5.4-1-13.8-4.2-20.4-0.4-0.8-0.4-0.2-0.8-1.1 0-0.3-0.3-0.9-0.5-1.3-4-6.6-8.9-11.3-14.7-15 0.4 0.2 1.2 0.8 1.2 0.7-10.8-7.1-23.3-8.1-33.6-5.9-0.7 0.3-1 0.6-1.8 1 1.5-0.5 2.4-0.6 3.8-0.9 0.3-0.3-1.3 0.1-0.6-0.2 0.1 0.1 1.4-0.2 1.7-0.1 0 0.1-0.4 0.2-0.5 0.3 3.3-0.7 6.7-0.8 9.6-0.6-1.7 0.1-4.8-0.2-5.8 0.3 1-0.1 2.4-0.2 3.3-0.1-1.2 0-3.4 0.1-4.4 0.2-0.1-0.1 1.6-0.3 0.5-0.3-0.5 0.1-1.3 0.1-1.6 0.4-8.6 0.8-17 5.3-22.9 10.6-1.2 1-2.6 2.1-3.5 3.2-2.2 2.5-3.6 5-5.2 7.2 1-2.1 3.2-5.3 5.8-8 2.6-2.7 5.4-5 6.9-6.2 0 0.4 2.4-1.5 3.3-2.1-0.6 0.5 0.4-0.2 0.6-0.1 3.2-1.9 5.8-2.6 8.7-3.7-0.7 0.2-1.3 0.4-1.4 0.3 0.7-0.2 1.1-0.4 1-0.5-2.8 0.8-7.2 2.7-10.7 4.8 6.3-4.3 14.3-6.9 22.2-7 7.9-0.2 15.6 1.8 21.7 5 4.1 1.8 8 5.1 11.1 8.3 0.9 0.8 0.2-0.2 1.5 1.2-0.4-0.2-0.7-0.4-0.2 0.2 0.8 0.9-0.2-0.7 1.1 0.9-0.1 0-0.5-0.5-0.5-0.3 3.5 3.1 6.2 8.7 7.8 12.4-0.4-1.5-1.4-3.6-2.2-5.1 2.4 4.4 3.2 7 4.2 10.9 0.4 0.3-0.2-1.4 0.2-0.6 0.1 0.6 0.2 2.5 0.6 2.8-0.3-1.9-0.8-4.2-1.2-4.6 0.3 0.2-0.5-2.3-1-2.9-0.2-1.6-1.6-4.4-2.8-6.5-4.3-8.4-12-15.3-20.6-19.1 0-0.2-0.5-0.4-0.7-0.6-8.5-3.6-18.7-4.6-28.5-2.3-9.9 2.4-19.2 8.1-25.8 16.3 0.3-1 2.8-2.9 2.9-3.7-2.9 3.1-6 7.2-8.1 11.6-2.2 4.4-3.4 8.9-3.9 12.2" fill="#000000" fill-rule="nonzero" stroke="none" stroke-width="1" stroke-linecap="butt" stroke-linejoin="miter" stroke-miterlimit="10" stroke-dasharray="" stroke-dashoffset="0" font-family="none" font-weight="none" font-size="none" text-anchor="none" style="mix-blend-mode: normal" data-fill-palette-color="tertiary"></path></g><g transform="matrix(1,0,0,1,70.08999999999999,90.08999999999999)"><svg viewBox="0 0 179.82000000000002 179.82000000000002" height="179.82000000000002" width="179.82000000000002"><g><svg viewBox="0 0 179.82000000000002 179.82000000000002" height="179.82000000000002" width="179.82000000000002"><g><svg viewBox="0 0 179.82000000000002 179.82000000000002" height="179.82000000000002" width="179.82000000000002"><g id="textblocktransform"><svg viewBox="0 0 179.82000000000002 179.82000000000002" height="179.82000000000002" width="179.82000000000002" id="textblock"><g><svg viewBox="0 0 179.82000000000002 179.82000000000002" height="179.82000000000002" width="179.82000000000002"><g transform="matrix(1,0,0,1,36.93002441959793,36.93002441959793)"><svg viewBox="0 0 105.95995116080417 105.95995116080417" height="105.95995116080417" width="105.95995116080417"><g><circle r="53" cx="52.97997558040208" cy="52.97997558040208" fill="#000000" data-fill-palette-color="accent"></circle><svg version="1.1" xmlns="http://www.w3.org/2000/svg" xmlns:xlink="http://www.w3.org/1999/xlink" x="15.893992674120625" y="15.893992674120625" viewBox="0 0 80.001 100" enable-background="new 0 0 80.001 100" xml:space="preserve" width="74.17196581256292" height="74.17196581256292" class="icon-wg-0" data-fill-palette-color="quaternary" id="wg-0"><path d="M64.001 40v2H64h-7v-8h-3.714C60.104 31.608 65 25.134 65 17.5 65 7.835 57.165 0 47.5 0c-6.378 0-11.941 3.423-15 8.52C29.441 3.423 23.878 0 17.5 0 7.835 0 0 7.835 0 17.5 0 25.134 4.896 31.608 11.714 34H8v11H2v6h6v11h20v2h-5v4h3.14l-22.6 32h4.908l22.588-32h3.104l-22.6 32h4.908l22.588-32H42v-4h-5v-2h20v-8h7 0.001v2h16V40H64.001zM23.286 34c3.882-1.361 7.129-4.046 9.214-7.52 2.085 3.474 5.332 6.158 9.214 7.52H23.286z" fill="#ffffff" data-fill-palette-color="quaternary"></path></svg></g></svg></g><g><path d="M25.881 118.438L26.645 120.656 7.981 122.233 7.081 119.62 22.733 109.292 23.523 111.586 9.988 120.123ZM30.079 127.207L31.262 129.291 15.47 138.259 14.287 136.175ZM38.819 138.81C39.81 139.897 40.498 140.996 40.883 142.107 41.262 143.223 41.192 144.479 40.672 145.876 40.148 147.268 38.997 148.775 37.219 150.395V150.395C34.686 152.703 32.472 153.815 30.576 153.731 28.684 153.653 27.045 152.852 25.656 151.329V151.329L23.106 148.529 36.53 136.297ZM37.695 140.439L36.718 139.367 26.123 149.021 27.167 150.167C27.761 150.819 28.416 151.253 29.133 151.469 29.851 151.676 30.735 151.569 31.787 151.149 32.838 150.729 34.086 149.86 35.531 148.543V148.543C36.996 147.209 37.97 146.039 38.453 145.034 38.935 144.039 39.083 143.192 38.894 142.493 38.711 141.8 38.311 141.115 37.695 140.439ZM50.045 148.857L56.997 153.428 55.722 154.897 50.988 151.784 47.673 156.826 51.793 159.535 50.739 161.138 46.619 158.429 43.129 163.737 48.171 167.052 47.112 168.663 40.068 164.032ZM69.284 157.862C71.182 158.496 72.42 159.729 72.996 161.563 73.567 163.388 73.355 165.794 72.359 168.78V168.78C71.376 171.729 70.104 173.771 68.545 174.906 66.977 176.046 65.244 176.299 63.346 175.666V175.666C61.441 175.03 60.196 173.798 59.612 171.968 59.026 170.145 59.23 167.74 60.226 164.754V164.754C61.21 161.806 62.496 159.762 64.085 158.622 65.665 157.487 67.398 157.233 69.284 157.862ZM68.667 159.711C67.467 159.31 66.369 159.555 65.373 160.446 64.384 161.338 63.47 163.042 62.631 165.556V165.556C61.796 168.058 61.515 169.959 61.787 171.258 62.055 172.549 62.783 173.393 63.972 173.789V173.789C65.172 174.19 66.26 173.955 67.235 173.086 68.209 172.216 69.119 170.515 69.964 167.981V167.981C70.805 165.46 71.099 163.554 70.845 162.26 70.594 160.961 69.868 160.111 68.667 159.711ZM88.44 161.079C89.367 161.127 90.176 161.332 90.867 161.693 91.565 162.054 92.247 162.588 92.914 163.292V163.292L91.524 164.564C90.987 164.045 90.485 163.667 90.02 163.43 89.548 163.193 88.987 163.058 88.339 163.024V163.024C87.128 162.961 86.109 163.472 85.283 164.557 84.464 165.636 83.984 167.519 83.844 170.206V170.206C83.746 172.085 83.815 173.572 84.05 174.666 84.278 175.76 84.668 176.55 85.22 177.036 85.766 177.523 86.475 177.789 87.349 177.834V177.834C88.302 177.884 89.186 177.664 90.001 177.176V177.176L90.294 171.547 87.822 171.418 87.655 169.459 92.708 169.722 92.253 178.458C90.655 179.45 88.98 179.9 87.226 179.808V179.808C82.957 179.586 80.986 176.341 81.313 170.074V170.074C81.419 168.023 81.807 166.311 82.476 164.939 83.151 163.567 84.006 162.563 85.042 161.927 86.076 161.297 87.209 161.015 88.44 161.079ZM115.043 176.145L112.466 176.687 107.413 169.806C107.292 169.844 107.112 169.889 106.872 169.94V169.94L105.277 170.275 106.872 177.863 104.528 178.356 100.791 160.583 104.342 159.836C106.424 159.399 108.064 159.504 109.264 160.153 110.455 160.796 111.221 161.925 111.561 163.54V163.54C111.799 164.675 111.738 165.707 111.378 166.636 111.018 167.565 110.379 168.325 109.461 168.918V168.918ZM106.29 168.183C107.528 167.922 108.366 167.462 108.803 166.801 109.241 166.147 109.336 165.233 109.09 164.059V164.059C108.862 162.976 108.41 162.242 107.733 161.856 107.062 161.469 106.055 161.416 104.713 161.698V161.698L103.526 161.948 104.899 168.475ZM135.242 167L133.065 168.114 130.001 164.5 125.168 166.971 126.303 171.571 124.188 172.652 120.125 154.332 122.78 152.975ZM122.331 155.459L124.689 165.05 128.725 162.987ZM135.154 144.477C136.771 143.095 138.303 142.409 139.75 142.419 141.202 142.424 142.529 143.13 143.73 144.535V144.535C145.009 146.032 145.535 147.504 145.309 148.953 145.082 150.411 144.187 151.807 142.626 153.142V153.142L141.726 153.911 146.093 159.019 144.272 160.575 132.471 146.77ZM141.392 151.699C142.42 150.821 142.99 149.958 143.104 149.112 143.212 148.269 142.79 147.291 141.839 146.178V146.178C140.986 145.181 140.124 144.667 139.252 144.636 138.385 144.601 137.443 145.018 136.425 145.888V145.888L135.526 146.657 140.493 152.468ZM165.402 136.522L164.018 138.489 157.035 133.575 153.671 138.355 160.654 143.269 159.275 145.228 144.423 134.777 145.802 132.818 152.053 137.217 155.417 132.437 149.165 128.037 150.55 126.07ZM156.264 111.443L157.065 109.123 166.058 117.309 172.664 119.59 171.881 121.855 165.304 119.583 153.148 120.463 153.985 118.039 163.696 117.692Z" fill="#000000" data-fill-palette-color="primary"></path><path d="M6.587 53.529L23.808 58.459 23.054 60.554 15.254 58.243C12.022 57.32 9.689 56.582 8.253 56.031V56.031L19.86 63.44 19.116 65.507 5.371 63.952 6.5 64.337C7.772 64.795 9.735 65.575 12.387 66.678V66.678L19.731 69.785 18.977 71.881 2.571 64.687 3.608 61.807 16.918 63.512 5.523 56.485ZM14.465 39.549L15.787 37.587 30.607 47.578 29.285 49.539ZM45.694 32.227L43.947 33.822 38.278 27.61 34.027 31.49 39.695 37.702 37.948 39.297 25.9 26.095 27.647 24.5 32.72 30.058 36.971 26.179 31.899 20.62 33.646 19.026ZM64.288 22.272L62.103 23.302 59.203 19.648 54.375 21.926 55.352 26.488 53.239 27.485 49.811 9.34 52.463 8.089ZM51.945 10.509L53.965 20.031 58.002 18.126ZM85.886 0.061L88.252 0.047 88.356 17.92 85.99 17.933ZM93.829 0.015L96.344 0 90.944 8.202 96.835 17.87 94.161 17.886 88.4 8.376ZM115.828 22.261L113.321 21.592 111.934 13.299C111.813 13.288 111.638 13.251 111.407 13.19V13.19L109.851 12.774 107.885 20.141 105.599 19.531 110.209 2.262 113.676 3.188C115.693 3.726 117.083 4.543 117.847 5.639 118.609 6.741 118.781 8.076 118.362 9.645V9.645C118.068 10.746 117.556 11.624 116.825 12.28 116.095 12.935 115.196 13.32 114.13 13.433V13.433ZM111.675 11.378C112.878 11.7 113.816 11.669 114.488 11.285 115.166 10.904 115.657 10.143 115.961 9.004V9.004C116.241 7.954 116.172 7.109 115.753 6.469 115.327 5.827 114.465 5.333 113.165 4.986V4.986L112.012 4.678 110.321 11.017ZM132.858 10.595L134.955 11.689 126.689 27.535 124.591 26.441ZM153.368 25.678L155.091 27.21 139.842 37.567 137.807 35.757 146.252 19.35 148.035 20.935 140.545 34.787ZM163.798 37.6L168.459 44.347 166.758 45.208 163.588 40.62 158.697 43.998 161.454 47.99 159.892 49.069 157.135 45.077 151.999 48.625 155.377 53.516 153.815 54.595 149.092 47.758ZM176.89 62.69C177.174 63.489 177.29 64.239 177.237 64.94 177.181 65.635 176.983 66.384 176.642 67.187V67.187L174.894 66.511C175.138 65.911 175.278 65.365 175.314 64.874 175.353 64.389 175.282 63.894 175.103 63.388V63.388C174.251 60.99 171.533 60.606 166.949 62.234V62.234C162.391 63.854 160.545 65.884 161.413 68.326V68.326C161.61 68.882 161.893 69.33 162.26 69.671 162.625 70.005 163.089 70.322 163.653 70.621V70.621L162.786 72.279C162.074 71.977 161.424 71.554 160.837 71.01 160.25 70.466 159.809 69.779 159.514 68.948V68.948C158.872 67.143 159.093 65.437 160.174 63.829 161.249 62.223 163.229 60.908 166.114 59.883V59.883C168.056 59.193 169.766 58.877 171.242 58.937 172.723 58.987 173.933 59.345 174.873 60.01 175.819 60.672 176.491 61.566 176.89 62.69Z" fill="#000000" data-fill-palette-color="primary"></path><path d="M7.348 91.829C7.348 90.679 8.279 89.747 9.429 89.747 10.578 89.747 11.51 90.679 11.51 91.829 11.51 92.978 10.578 93.91 9.429 93.91 8.279 93.91 7.348 92.978 7.348 91.829ZM168.225 91.829C168.225 90.679 169.157 89.747 170.306 89.747 171.456 89.747 172.388 90.679 172.388 91.829 172.388 92.978 171.456 93.91 170.306 93.91 169.157 93.91 168.225 92.978 168.225 91.829Z" fill="#000000" data-fill-palette-color="primary"></path></g></svg></g></svg></g></svg></g></svg></g></svg></g></svg></g><defs></defs></svg><rect width="320" height="360" fill="none" stroke="none" visibility="hidden"></rect></g></svg></g></svg>